<svg id="Ebene_1" data-name="Ebene 1" xmlns="http://www.w3.org/2000/svg" viewBox="0 0 453.31 461.98"><defs><style>.cls-1,.cls-2{fill:none;stroke-width:6px;}.cls-1{stroke:#4f4f4f;}.cls-2{stroke:#4d4d4d;}.cls-3{fill:#283583;}.cls-4{fill:#009fe3;}.cls-5{fill:#f18739;}</style></defs><line class="cls-1" x1="107.04" y1="130.94" x2="280.59" y2="115.6"/><line class="cls-1" x1="73.94" y1="158.15" x2="107.2" y2="278.67"/><line class="cls-2" x1="179.69" y1="311.58" x2="326.91" y2="165.3"/><path class="cls-3" d="M381.56,244.08a111,111,0,1,0-110.94-111,110.94,110.94,0,0,0,110.94,111Z" transform="translate(-39.2 -22.18)"/><path class="cls-4" d="M179.83,484.16a111,111,0,1,0-111-111,111,111,0,0,0,111,111Z" transform="translate(-39.2 -22.18)"/><path class="cls-5" d="M100.48,214.43A61.27,61.27,0,1,0,39.2,153.16a61.27,61.27,0,0,0,61.28,61.27Z" transform="translate(-39.2 -22.18)"/></svg>